<?xml version="1.0" encoding="UTF-8"?>
<svg viewBox="0 0 800 1200" xmlns="http://www.w3.org/2000/svg">
  <!-- Background -->
  <rect width="800" height="1200" fill="#f9fafb" />
  
  <!-- Header/Nav Bar -->
  <rect width="800" height="60" fill="#ffffff" stroke="#e5e7eb" stroke-width="1" />
  
  <!-- Logo -->
  <text x="30" y="37" font-family="Arial, sans-serif" font-size="20" font-weight="bold" fill="#2563eb">PetPals</text>
  
  <!-- Navigation Menu Items -->
  <g transform="translate(120, 30)">
    <g transform="translate(0, 0)">
      <rect width="24" height="24" fill="none" stroke="#2563eb" stroke-width="2" />
      <polyline points="8,20 8,12 16,12 16,20" stroke="#2563eb" stroke-width="2" fill="none" />
      <polyline points="3,12 12,4 21,12" stroke="#2563eb" stroke-width="2" fill="none" />
      <text x="34" y="6" font-family="Arial, sans-serif" font-size="14" fill="#4b5563" dominant-baseline="middle">Home</text>
    </g>
    
  </g>
  
  <!-- Search Bar -->
  <rect x="520" y="15" width="160" height="30" rx="4" ry="4" fill="white" stroke="#d1d5db" stroke-width="1" />
  <circle cx="535" cy="30" r="7" fill="none" stroke="#9ca3af" stroke-width="1.5" />
  <line x1="540" y1="35" x2="544" y2="39" stroke="#9ca3af" stroke-width="1.5" />
  <text x="550" y="35" font-family="Arial, sans-serif" font-size="12" fill="#9ca3af">Search products...</text>
  
  <!-- Cart Icon -->
  <g transform="translate(700, 30)">
    <rect width="24" height="24" fill="none" stroke="#4b5563" stroke-width="1.5" />
    <circle cx="10" cy="20" r="2" fill="#4b5563" />
    <circle cx="18" cy="20" r="2" fill="#4b5563" />
    <polyline points="4,4 6,4 8,16 20,16" stroke="#4b5563" stroke-width="1.5" fill="none" />
  </g>
  
  <!-- User Icon -->
  <g transform="translate(740, 30)">
    <circle cx="12" cy="8" r="6" fill="none" stroke="#4b5563" stroke-width="1.5" />
    <path d="M2,24 C2,16 22,16 22,24" fill="none" stroke="#4b5563" stroke-width="1.5" />
  </g>
  
  <!-- Carousel -->
  <rect x="50" y="80" width="700" height="240" rx="8" ry="8" fill="#93c5fd" stroke="#3b82f6" stroke-width="1" />
  <rect x="50" y="80" width="700" height="240" rx="8" ry="8" fill="url(#blue-gradient)" />
  
  <!-- Carousel Text -->
  <text x="400" y="160" font-family="Arial, sans-serif" font-size="28" font-weight="bold" fill="white" text-anchor="middle">Premium Dog Collars</text>
  <text x="400" y="195" font-family="Arial, sans-serif" font-size="18" fill="white" text-anchor="middle">Stylish &amp; Comfortable Designs</text>
  
  <!-- Carousel Button -->
  <rect x="325" y="220" width="150" height="40" rx="6" ry="6" fill="white" />
  <text x="400" y="245" font-family="Arial, sans-serif" font-size="14" font-weight="bold" fill="#3b82f6" text-anchor="middle">Shop Collars</text>
  
  <!-- Carousel Navigation -->
  <circle cx="70" cy="200" r="20" fill="white" fill-opacity="0.3" />
  <text x="70" y="205" font-family="Arial, sans-serif" font-size="20" fill="white" text-anchor="middle">&lt;</text>
  
  <circle cx="730" cy="200" r="20" fill="white" fill-opacity="0.3" />
  <text x="730" y="205" font-family="Arial, sans-serif" font-size="20" fill="white" text-anchor="middle">&gt;</text>
  
  <!-- Carousel Indicators -->
  <circle cx="385" cy="290" r="5" fill="white" />
  <circle cx="400" cy="290" r="5" fill="white" fill-opacity="0.5" />
  <circle cx="415" cy="290" r="5" fill="white" fill-opacity="0.5" />
  
  <!-- Page Title -->
  <text x="50" y="360" font-family="Arial, sans-serif" font-size="22" font-weight="bold" fill="#1f2937">Dog Collars &amp; Leashes</text>
  
  <!-- Filter Controls -->
  <rect x="430" y="345" width="100" height="30" rx="4" ry="4" fill="white" stroke="#d1d5db" stroke-width="1" />
  <text x="440" y="365" font-family="Arial, sans-serif" font-size="12" fill="#4b5563">All Products</text>
  <polygon points="520,355 510,350 510,360" fill="#4b5563" />
  
  <rect x="540" y="345" width="80" height="30" rx="4" ry="4" fill="white" stroke="#d1d5db" stroke-width="1" />
  <text x="550" y="365" font-family="Arial, sans-serif" font-size="12" fill="#4b5563">All Sizes</text>
  <polygon points="610,355 600,350 600,360" fill="#4b5563" />
  
  <rect x="630" y="345" width="120" height="30" rx="4" ry="4" fill="white" stroke="#d1d5db" stroke-width="1" />
  <text x="640" y="365" font-family="Arial, sans-serif" font-size="12" fill="#4b5563">Most Popular</text>
  <polygon points="740,355 730,350 730,360" fill="#4b5563" />
  
  <!-- Feature Tags -->
  <g transform="translate(50, 390)">
    <rect width="90" height="24" rx="12" ry="12" fill="#dbeafe" />
    <text x="45" y="16" font-family="Arial, sans-serif" font-size="12" fill="#2563eb" text-anchor="middle">Reflective</text>
    
    <rect x="100" width="120" height="24" rx="12" ry="12" fill="#dcfce7" />
    <text x="160" y="16" font-family="Arial, sans-serif" font-size="12" fill="#16a34a" text-anchor="middle">Weather-Proof</text>
    
    <rect x="230" width="80" height="24" rx="12" ry="12" fill="#f3e8ff" />
    <text x="270" y="16" font-family="Arial, sans-serif" font-size="12" fill="#9333ea" text-anchor="middle">Training</text>
    
    <rect x="320" width="90" height="24" rx="12" ry="12" fill="#fef9c3" />
    <text x="365" y="16" font-family="Arial, sans-serif" font-size="12" fill="#ca8a04" text-anchor="middle">Premium</text>
  </g>
  
  <!-- Product Grid - Row 1 -->
  <!-- Product 1 -->
  <g transform="translate(50, 440)">
    <rect width="160" height="250" rx="6" ry="6" fill="white" stroke="#e5e7eb" stroke-width="1" />
    <rect width="160" height="120" rx="6" ry="6" fill="#dbeafe" />
    <circle cx="140" cy="20" r="15" fill="white" fill-opacity="0.8" />
    <path d="M140,15 L140,25 M135,20 L145,20" stroke="#9ca3af" stroke-width="1.5" />
    <rect x="10" y="95" width="70" height="18" rx="9" ry="9" fill="#3b82f6" />
    <text x="40" y="107" font-family="Arial, sans-serif" font-size="10" fill="white" text-anchor="middle">Reflective</text>
    
    <text x="10" y="145" font-family="Arial, sans-serif" font-size="12" fill="#f59e0b">★★★★★</text>
    <text x="65" y="145" font-family="Arial, sans-serif" font-size="10" fill="#6b7280">4.8</text>
    
    <text x="10" y="165" font-family="Arial, sans-serif" font-size="14" font-weight="bold" fill="#1f2937">Reflective Safety Collar</text>
    <text x="10" y="185" font-family="Arial, sans-serif" font-size="12" fill="#6b7280">Collar - Medium Size</text>
    
    <text x="10" y="215" font-family="Arial, sans-serif" font-size="16" font-weight="bold" fill="#2563eb">$24.99</text>
    <rect x="85" y="205" width="65" height="24" rx="4" ry="4" fill="#dbeafe" stroke="#bfdbfe" stroke-width="1" />
    <text x="118" y="221" font-family="Arial, sans-serif" font-size="12" fill="#2563eb" text-anchor="middle">Add to Cart</text>
  </g>
  
  <!-- Product 2 -->
  <g transform="translate(230, 440)">
    <rect width="160" height="250" rx="6" ry="6" fill="white" stroke="#e5e7eb" stroke-width="1" />
    <rect width="160" height="120" rx="6" ry="6" fill="#fef9c3" />
    <circle cx="140" cy="20" r="15" fill="white" fill-opacity="0.8" />
    <path d="M140,15 L140,25 M135,20 L145,20" stroke="#9ca3af" stroke-width="1.5" />
    <rect x="10" y="95" width="70" height="18" rx="9" ry="9" fill="#ca8a04" />
    <text x="40" y="107" font-family="Arial, sans-serif" font-size="10" fill="white" text-anchor="middle">Premium</text>
    
    <text x="10" y="145" font-family="Arial, sans-serif" font-size="12" fill="#f59e0b">★★★★★</text>
    <text x="65" y="145" font-family="Arial, sans-serif" font-size="10" fill="#6b7280">4.7</text>
    
    <text x="10" y="165" font-family="Arial, sans-serif" font-size="14" font-weight="bold" fill="#1f2937">Leather Padded Collar</text>
    <text x="10" y="185" font-family="Arial, sans-serif" font-size="12" fill="#6b7280">Collar - Large Size</text>
    
    <text x="10" y="215" font-family="Arial, sans-serif" font-size="16" font-weight="bold" fill="#2563eb">$39.99</text>
    <rect x="85" y="205" width="65" height="24" rx="4" ry="4" fill="#dbeafe" stroke="#bfdbfe" stroke-width="1" />
    <text x="118" y="221" font-family="Arial, sans-serif" font-size="12" fill="#2563eb" text-anchor="middle">Add to Cart</text>
  </g>
  
  <!-- Product 3 -->
  <g transform="translate(410, 440)">
    <rect width="160" height="250" rx="6" ry="6" fill="white" stroke="#e5e7eb" stroke-width="1" />
    <rect width="160" height="120" rx="6" ry="6" fill="#dcfce7" />
    <circle cx="140" cy="20" r="15" fill="white" fill-opacity="0.8" />
    <path d="M140,15 L140,25 M135,20 L145,20" stroke="#9ca3af" stroke-width="1.5" />
    <rect x="10" y="95" width="70" height="18" rx="9" ry="9" fill="#16a34a" />
    <text x="40" y="107" font-family="Arial, sans-serif" font-size="10" fill="white" text-anchor="middle">Extendable</text>
    
    <text x="10" y="145" font-family="Arial, sans-serif" font-size="12" fill="#f59e0b">★★★★★</text>
    <text x="65" y="145" font-family="Arial, sans-serif" font-size="10" fill="#6b7280">4.6</text>
    
    <text x="10" y="165" font-family="Arial, sans-serif" font-size="14" font-weight="bold" fill="#1f2937">Retractable Training Leash</text>
    <text x="10" y="185" font-family="Arial, sans-serif" font-size="12" fill="#6b7280">Leash - 16ft</text>
    
    <text x="10" y="215" font-family="Arial, sans-serif" font-size="16" font-weight="bold" fill="#2563eb">$32.50</text>
    <rect x="85" y="205" width="65" height="24" rx="4" ry="4" fill="#dbeafe" stroke="#bfdbfe" stroke-width="1" />
    <text x="118" y="221" font-family="Arial, sans-serif" font-size="12" fill="#2563eb" text-anchor="middle">Add to Cart</text>
  </g>
  
  <!-- Product 4 -->
  <g transform="translate(590, 440)">
    <rect width="160" height="250" rx="6" ry="6" fill="white" stroke="#e5e7eb" stroke-width="1" />
    <rect width="160" height="120" rx="6" ry="6" fill="#fee2e2" />
    <circle cx="140" cy="20" r="15" fill="white" fill-opacity="0.8" />
    <path d="M140,15 L140,25 M135,20 L145,20" stroke="#9ca3af" stroke-width="1.5" />
    <rect x="10" y="95" width="70" height="18" rx="9" ry="9" fill="#dc2626" />
    <text x="40" y="107" font-family="Arial, sans-serif" font-size="10" fill="white" text-anchor="middle">Adjustable</text>
    
    <text x="10" y="145" font-family="Arial, sans-serif" font-size="12" fill="#f59e0b">★★★★★</text>
    <text x="65" y="145" font-family="Arial, sans-serif" font-size="10" fill="#6b7280">4.5</text>
    
    <text x="10" y="165" font-family="Arial, sans-serif" font-size="14" font-weight="bold" fill="#1f2937">Nylon Adjustable Collar</text>
    <text x="10" y="185" font-family="Arial, sans-serif" font-size="12" fill="#6b7280">Collar - Small Size</text>
    
    <text x="10" y="215" font-family="Arial, sans-serif" font-size="16" font-weight="bold" fill="#2563eb">$18.99</text>
    <rect x="85" y="205" width="65" height="24" rx="4" ry="4" fill="#dbeafe" stroke="#bfdbfe" stroke-width="1" />
    <text x="118" y="221" font-family="Arial, sans-serif" font-size="12" fill="#2563eb" text-anchor="middle">Add to Cart</text>
  </g>
  
  <!-- Pagination -->
  <g transform="translate(330, 720)">
    <rect width="30" height="30" rx="4" ry="4" fill="#dbeafe" stroke="#bfdbfe" stroke-width="1" />
    <text x="15" y="20" font-family="Arial, sans-serif" font-size="14" fill="#2563eb" text-anchor="middle">&lt;</text>
    
    <rect x="40" width="30" height="30" rx="4" ry="4" fill="#3b82f6" stroke="#3b82f6" stroke-width="1" />
    <text x="55" y="20" font-family="Arial, sans-serif" font-size="14" fill="white" text-anchor="middle">1</text>
    
    <rect x="80" width="30" height="30" rx="4" ry="4" fill="white" stroke="#d1d5db" stroke-width="1" />
    <text x="95" y="20" font-family="Arial, sans-serif" font-size="14" fill="#4b5563" text-anchor="middle">2</text>
    
    <rect x="120" width="30" height="30" rx="4" ry="4" fill="#dbeafe" stroke="#bfdbfe" stroke-width="1" />
    <text x="135" y="20" font-family="Arial, sans-serif" font-size="14" fill="#2563eb" text-anchor="middle">&gt;</text>
  </g>
  
  <!-- Footer -->
  <rect y="780" width="800" height="60" fill="#1f2937" />
  <text x="400" y="815" font-family="Arial, sans-serif" font-size="14" fill="white" text-anchor="middle">© 2025 PetPals. All rights reserved.</text>
  
  <!-- Gradients -->
  <defs>
    <linearGradient id="blue-gradient" x1="0%" y1="0%" x2="100%" y2="0%">
      <stop offset="0%" style="stop-color:#3b82f6;stop-opacity:1" />
      <stop offset="100%" style="stop-color:#60a5fa;stop-opacity:1" />
    </linearGradient>
  </defs>
</svg>